<svg width="44" height="44" viewBox="0 0 44 44" fill="none" xmlns="http://www.w3.org/2000/svg">
<path d="M16.829 29.5839H34.5263C35.1171 29.5839 35.6327 29.0956 35.6327 28.4394C35.6327 27.7831 35.1171 27.2949 34.5263 27.2949H17.0865C16.2221 27.2949 15.6915 26.6842 15.555 25.7539L15.3124 24.1516H34.5561C36.7702 24.1516 37.9077 22.7779 38.226 20.5963L39.4392 12.5241C39.4714 12.3324 39.4917 12.1389 39.5 11.9446C39.5 11.2122 38.9539 10.7083 38.1199 10.7083H13.3564L13.0679 8.77083C12.9165 7.5957 12.492 7 10.9456 7H5.62194C5.01568 7 4.5 7.53515 4.5 8.14583C4.5 8.77083 5.01568 9.30533 5.62258 9.30533H10.7476L13.174 26.0592C13.493 28.2259 14.6298 29.5839 16.829 29.5839ZM36.9216 13.0124L35.8463 20.3216C35.7246 21.2675 35.2245 21.8476 34.3296 21.8476L14.9798 21.8626L13.6903 13.0124H36.9216ZM18.0273 36.9999C18.3507 37.0026 18.6713 36.9405 18.9706 36.8172C19.2699 36.6939 19.5418 36.512 19.7704 36.2819C19.9991 36.0518 20.1799 35.7782 20.3025 35.4771C20.425 35.176 20.4867 34.8533 20.484 34.5279C20.4854 34.2029 20.4228 33.8808 20.2998 33.5803C20.1768 33.2798 19.9959 33.0067 19.7675 32.7769C19.5391 32.5471 19.2677 32.365 18.9691 32.2413C18.6704 32.1175 18.3503 32.0545 18.0273 32.0559C16.6478 32.0559 15.5557 33.1549 15.5557 34.5279C15.5557 35.9166 16.6478 36.9999 18.0273 36.9999ZM32.2061 36.9999C33.5862 36.9999 34.6777 35.9166 34.6777 34.5279C34.6777 33.1542 33.5862 32.0559 32.2061 32.0559C30.8416 32.0559 29.7345 33.1549 29.7345 34.5279C29.7345 35.9166 30.8416 36.9999 32.2061 36.9999Z" fill="white"/>
</svg>
