<svg width="36" height="30" viewBox="0 0 36 30" fill="none" xmlns="http://www.w3.org/2000/svg">
<path d="M12.829 22.5839H30.5263C31.1171 22.5839 31.6327 22.0956 31.6327 21.4394C31.6327 20.7831 31.1171 20.2949 30.5263 20.2949H13.0865C12.2221 20.2949 11.6915 19.6842 11.555 18.7539L11.3124 17.1516H30.5561C32.7702 17.1516 33.9077 15.7779 34.226 13.5963L35.4392 5.52407C35.4714 5.33239 35.4917 5.13887 35.5 4.94465C35.5 4.21223 34.9539 3.70832 34.1199 3.70832H9.35643L9.06786 1.77083C8.91646 0.595701 8.49201 0 6.94563 0H1.62194C1.01568 0 0.5 0.535155 0.5 1.14583C0.5 1.77083 1.01568 2.30533 1.62258 2.30533H6.74764L9.17397 19.0592C9.49296 21.2259 10.6298 22.5839 12.829 22.5839ZM32.9216 6.01235L31.8463 13.3216C31.7246 14.2675 31.2245 14.8476 30.3296 14.8476L10.9798 14.8626L9.6903 6.01235H32.9216ZM14.0273 29.9999C14.3507 30.0026 14.6713 29.9405 14.9706 29.8172C15.2699 29.6939 15.5418 29.512 15.7704 29.2819C15.9991 29.0518 16.1799 28.7782 16.3025 28.4771C16.425 28.176 16.4867 27.8533 16.484 27.5279C16.4854 27.2029 16.4228 26.8808 16.2998 26.5803C16.1768 26.2798 15.9959 26.0067 15.7675 25.7769C15.5391 25.5471 15.2677 25.365 14.9691 25.2413C14.6704 25.1175 14.3503 25.0545 14.0273 25.0559C12.6478 25.0559 11.5557 26.1549 11.5557 27.5279C11.5557 28.9166 12.6478 29.9999 14.0273 29.9999ZM28.2061 29.9999C29.5862 29.9999 30.6777 28.9166 30.6777 27.5279C30.6777 26.1542 29.5862 25.0559 28.2061 25.0559C26.8416 25.0559 25.7345 26.1549 25.7345 27.5279C25.7345 28.9166 26.8416 29.9999 28.2061 29.9999Z" fill="#FF660E"/>
</svg>
