<svg width="44" height="44" viewBox="0 0 44 44" fill="none" xmlns="http://www.w3.org/2000/svg">
<path d="M32.8405 9.22077L22 20.0613L11.1595 9.22077C10.8988 8.98218 10.556 8.85339 10.2027 8.86121C9.84937 8.86904 9.51268 9.01289 9.26277 9.2628C9.01287 9.51271 8.86902 9.8494 8.86119 10.2027C8.85336 10.5561 8.98216 10.8988 9.22075 11.1595L20.0557 22L9.218 32.8378C9.08559 32.964 8.97975 33.1153 8.90669 33.283C8.83362 33.4507 8.79482 33.6313 8.79256 33.8142C8.79029 33.9971 8.82461 34.1786 8.8935 34.348C8.96238 34.5174 9.06444 34.6714 9.19369 34.8008C9.32293 34.9302 9.47673 35.0325 9.64607 35.1016C9.81541 35.1708 9.99686 35.2053 10.1797 35.2033C10.3626 35.2013 10.5433 35.1628 10.7111 35.09C10.8788 35.0171 11.0304 34.9115 11.1567 34.7793L22 23.9415L32.8405 34.782C33.1012 35.0206 33.444 35.1494 33.7973 35.1416C34.1506 35.1338 34.4873 34.9899 34.7372 34.74C34.9871 34.4901 35.131 34.1534 35.1388 33.8001C35.1466 33.4467 35.0178 33.104 34.7792 32.8433L23.9387 22.0028L34.7792 11.1595C34.9117 11.0333 35.0175 10.882 35.0906 10.7143C35.1636 10.5466 35.2024 10.366 35.2047 10.1831C35.207 10.0002 35.1726 9.81874 35.1037 9.64931C35.0349 9.47987 34.9328 9.32592 34.8036 9.19649C34.6743 9.06707 34.5205 8.96479 34.3512 8.89566C34.1818 8.82654 34.0004 8.79196 33.8175 8.79397C33.6346 8.79597 33.454 8.83452 33.2862 8.90734C33.1184 8.98017 32.9669 9.0858 32.8405 9.21802V9.22077Z" fill="#FF660E"/>
</svg>
