<svg width="21" height="11" viewBox="0 0 21 11" fill="none" xmlns="http://www.w3.org/2000/svg">
<path d="M1.687 0.273024C1.59153 0.182805 1.47922 0.112276 1.3565 0.0654601C1.23377 0.0186446 1.10302 -0.00353987 0.971716 0.00017448C0.840414 0.00388883 0.71113 0.0334289 0.591244 0.0871076C0.471358 0.140786 0.363219 0.217553 0.273001 0.313024C0.182783 0.408495 0.112252 0.520801 0.0654368 0.64353C0.0186213 0.766259 -0.00356272 0.897006 0.000151633 1.02831C0.00386598 1.15961 0.0334058 1.2889 0.0870845 1.40878C0.140763 1.52867 0.21753 1.63681 0.313001 1.72702L9.313 10.227C9.49867 10.4026 9.74449 10.5004 10 10.5004C10.2555 10.5004 10.5013 10.4026 10.687 10.227L19.688 1.72702C19.7856 1.6374 19.8643 1.52929 19.9198 1.40896C19.9752 1.28863 20.0062 1.15849 20.0109 1.0261C20.0156 0.893703 19.9939 0.761693 19.9472 0.637736C19.9004 0.51378 19.8295 0.400346 19.7386 0.304026C19.6476 0.207705 19.5384 0.130417 19.4173 0.0766507C19.2963 0.0228845 19.1657 -0.00628785 19.0333 -0.00917232C18.9008 -0.0120568 18.7691 0.0114039 18.6458 0.059848C18.5225 0.108292 18.4101 0.180753 18.315 0.273023L10 8.12502L1.687 0.273024Z" fill="#FF660E"/>
</svg>
