<svg width="26" height="24" viewBox="0 0 26 24" fill="none" xmlns="http://www.w3.org/2000/svg">
<path d="M22.9545 1.3473C19.5238 -1.10072 15.2875 0.04169 13.0004 2.84331C10.7132 0.04169 6.47687 -1.11432 3.04618 1.3473C1.22688 2.65291 0.0833233 4.85613 0.00535326 7.18175C-0.176577 12.4586 4.2937 16.6882 11.1161 23.1755L11.246 23.2979C12.2337 24.2363 13.7541 24.2363 14.7417 23.2843L14.8846 23.1483C21.707 16.6746 26.1643 12.445 25.9954 7.16815C25.9174 4.85613 24.7738 2.65291 22.9545 1.3473ZM13.1303 21.1491L13.0004 21.2851L12.8704 21.1491C6.68478 15.2874 2.60435 11.4114 2.60435 7.48095C2.60435 4.76093 4.5536 2.72091 7.15261 2.72091C9.15384 2.72091 11.1031 4.06732 11.7918 5.93054H14.2219C14.8976 4.06732 16.8469 2.72091 18.8481 2.72091C21.4471 2.72091 23.3964 4.76093 23.3964 7.48095C23.3964 11.4114 19.3159 15.2874 13.1303 21.1491Z" fill="#FF660E"/>
</svg>
