<svg width="44" height="44" viewBox="0 0 44 44" fill="none" xmlns="http://www.w3.org/2000/svg">
<path d="M31.9545 11.3473C28.5238 8.89928 24.2875 10.0417 22.0004 12.8433C19.7132 10.0417 15.4769 8.88568 12.0462 11.3473C10.2269 12.6529 9.08332 14.8561 9.00535 17.1817C8.82342 22.4586 13.2937 26.6882 20.1161 33.1755L20.246 33.2979C21.2337 34.2363 22.7541 34.2363 23.7417 33.2843L23.8846 33.1483C30.707 26.6746 35.1643 22.445 34.9954 17.1681C34.9174 14.8561 33.7738 12.6529 31.9545 11.3473ZM22.1303 31.1491L22.0004 31.2851L21.8704 31.1491C15.6848 25.2874 11.6044 21.4114 11.6044 17.481C11.6044 14.7609 13.5536 12.7209 16.1526 12.7209C18.1538 12.7209 20.1031 14.0673 20.7918 15.9305H23.2219C23.8976 14.0673 25.8469 12.7209 27.8481 12.7209C30.4471 12.7209 32.3964 14.7609 32.3964 17.481C32.3964 21.4114 28.3159 25.2874 22.1303 31.1491Z" fill="white"/>
</svg>
