<svg width="12" height="24" viewBox="0 0 12 24" fill="none" xmlns="http://www.w3.org/2000/svg">
<path d="M0.322482 21.5608C0.219471 21.6705 0.138941 21.7996 0.0854872 21.9407C0.0320338 22.0817 0.00670327 22.232 0.0109443 22.3829C0.0151853 22.5338 0.0489139 22.6824 0.110204 22.8202C0.171494 22.958 0.259146 23.0823 0.368154 23.1859C0.477161 23.2896 0.605392 23.3707 0.745523 23.4245C0.885654 23.4783 1.03494 23.5038 1.18486 23.4995C1.33478 23.4953 1.4824 23.4613 1.61928 23.3996C1.75617 23.3379 1.87964 23.2497 1.98265 23.14L11.6879 12.796C11.8883 12.5827 12 12.3001 12 12.0065C12 11.7128 11.8883 11.4303 11.6879 11.2169L1.98265 0.871791C1.88032 0.759662 1.75687 0.669116 1.61948 0.605414C1.4821 0.541715 1.3335 0.506127 1.18234 0.500722C1.03117 0.495315 0.880441 0.5202 0.738908 0.573924C0.597375 0.62765 0.467857 0.709148 0.357879 0.813684C0.247901 0.91822 0.159654 1.04371 0.0982637 1.18287C0.0368738 1.32202 0.00356482 1.47207 0.000271792 1.6243C-0.00302219 1.77652 0.0237656 1.92789 0.0790787 2.0696C0.134392 2.21132 0.217127 2.34056 0.32248 2.44981L9.28785 12.0065L0.322482 21.5608Z" fill="#FF660E"/>
</svg>
