<svg width="100" height="100" viewBox="0 0 100 100" fill="none" xmlns="http://www.w3.org/2000/svg">
<path d="M49.9999 22.9166L47.7499 25.0833L47.7916 25.1291L49.9999 22.9166ZM29.1708 68.4166C28.5298 67.8895 27.7057 67.6386 26.8798 67.7191C26.0538 67.7995 25.2937 68.2048 24.7666 68.8458C24.2395 69.4867 23.9886 70.3108 24.069 71.1367C24.1495 71.9627 24.5548 72.7228 25.1958 73.2499L29.1708 68.4166ZM9.75825 55.8791C9.95524 56.2391 10.2212 56.5569 10.541 56.8141C10.8607 57.0714 11.2281 57.2631 11.6219 57.3784C12.0158 57.4937 12.4285 57.5303 12.8365 57.4861C13.2446 57.4419 13.6399 57.3178 13.9999 57.1208C14.36 56.9238 14.6777 56.6578 14.9349 56.3381C15.1922 56.0183 15.3839 55.651 15.4992 55.2571C15.6145 54.8632 15.6511 54.4505 15.6069 54.0425C15.5627 53.6345 15.4386 53.2391 15.2416 52.8791L9.75825 55.8791ZM56.1249 33.4624C56.4155 33.7524 56.7603 33.9824 57.1397 34.1391C57.5191 34.2959 57.9257 34.3763 58.3362 34.3759C58.7467 34.3756 59.1531 34.2943 59.5322 34.1369C59.9114 33.9794 60.2558 33.7488 60.5458 33.4583C60.8358 33.1677 61.0657 32.8229 61.2224 32.4435C61.3792 32.0641 61.4596 31.6575 61.4593 31.247C61.4589 30.8365 61.3776 30.4301 61.2202 30.051C61.0627 29.6718 60.8321 29.3274 60.5416 29.0374L56.1249 33.4624ZM11.4583 38.0666C11.4583 29.1083 16.5208 21.5916 23.4333 18.4291C30.1499 15.3583 39.1749 16.1749 47.7499 25.0833L52.2499 20.7499C42.0833 10.1833 30.2666 8.43744 20.8333 12.7499C11.6083 16.9708 5.20825 26.7708 5.20825 38.0708L11.4583 38.0666ZM35.4041 81.2499C37.5416 82.9333 39.8333 84.7249 42.1541 86.0833C44.4749 87.4374 47.1249 88.5416 49.9999 88.5416V82.2916C48.7083 82.2916 47.1916 81.7916 45.3083 80.6874C43.4208 79.5874 41.4666 78.0708 39.2749 76.3416L35.4041 81.2499ZM64.5958 81.2499C70.5374 76.5624 78.1374 71.1958 84.0958 64.4833C90.1666 57.6499 94.7916 49.1791 94.7916 38.0708H88.5416C88.5416 47.2291 84.7916 54.2833 79.4249 60.3333C73.9458 66.4999 67.0416 71.3624 60.7249 76.3416L64.5958 81.2499ZM94.7916 38.0708C94.7916 26.7708 88.3958 16.9708 79.1666 12.7499C69.7333 8.43744 57.9249 10.1833 47.7499 20.7499L52.2499 25.0833C60.8249 16.1791 69.8499 15.3624 76.5666 18.4333C83.4791 21.5958 88.5416 29.1083 88.5416 38.0708H94.7916ZM60.7249 76.3416C58.5333 78.0708 56.5791 79.5874 54.6916 80.6874C52.8083 81.7874 51.2916 82.2916 49.9999 82.2916V88.5416C52.8749 88.5416 55.5249 87.4374 57.8458 86.0833C60.1708 84.7249 62.4583 82.9333 64.5958 81.2499L60.7249 76.3416ZM39.2749 76.3416C35.9583 73.7291 32.5874 71.2291 29.1708 68.4166L25.1958 73.2499C28.6541 76.0958 32.3124 78.8124 35.4041 81.2499L39.2749 76.3416ZM15.2416 52.8833C12.7316 48.3517 11.4288 43.2509 11.4583 38.0708H5.20825C5.20825 44.8958 6.95825 50.7583 9.75825 55.8791L15.2416 52.8833ZM47.7916 25.1291L56.1249 33.4583L60.5416 29.0374L52.2083 20.7083L47.7916 25.1291Z" fill="#FF660E"/>
</svg>
