<svg width="100" height="100" viewBox="0 0 100 100" fill="none" xmlns="http://www.w3.org/2000/svg">
<path fill-rule="evenodd" clip-rule="evenodd" d="M17.3699 17.3701V17.3851C17.1019 20.4047 16.9101 23.4307 16.7949 26.4601C16.5049 33.7601 16.5449 42.4251 17.5049 48.8601C17.5832 49.2634 17.7881 49.6312 18.0899 49.9101L56.8599 88.68C57.3287 89.1487 57.9645 89.412 58.6274 89.412C59.2903 89.412 59.9261 89.1487 60.3949 88.68L88.6799 60.3951C89.1486 59.9262 89.4119 59.2905 89.4119 58.6276C89.4119 57.9646 89.1486 57.3289 88.6799 56.86L49.9099 18.0901C49.6311 17.7883 49.2633 17.5833 48.8599 17.5051C42.4249 16.5451 33.7599 16.5051 26.4599 16.7951C23.4305 16.9091 20.4045 17.1008 17.3849 17.3701H17.3699ZM12.9499 12.9501C12.4649 13.4101 10.5049 35.7851 12.5649 49.6001C12.7849 51.0701 13.5149 52.4 14.5649 53.45L53.3299 92.2201C54.7364 93.6261 56.6437 94.416 58.6324 94.416C60.6211 94.416 62.5284 93.6261 63.9349 92.2201L92.2199 63.935C93.6259 62.5286 94.4158 60.6213 94.4158 58.6325C94.4158 56.6438 93.6259 54.7365 92.2199 53.3301L53.4449 14.5501C52.4094 13.4876 51.0596 12.7864 49.5949 12.5501C35.7799 10.4951 13.4049 12.4501 12.9449 12.9401" fill="#FF660E"/>
<path fill-rule="evenodd" clip-rule="evenodd" d="M37.8799 38.3052C37.6412 38.5358 37.4507 38.8117 37.3197 39.1167C37.1887 39.4217 37.1197 39.7498 37.1168 40.0817C37.1139 40.4137 37.1772 40.7429 37.3029 41.0501C37.4286 41.3574 37.6142 41.6365 37.849 41.8712C38.0837 42.1059 38.3628 42.2916 38.6701 42.4173C38.9773 42.543 39.3065 42.6062 39.6384 42.6034C39.9704 42.6005 40.2984 42.5315 40.6035 42.4005C40.9085 42.2695 41.1843 42.079 41.4149 41.8402C41.8703 41.3687 42.1223 40.7372 42.1166 40.0817C42.1109 39.4262 41.848 38.7992 41.3845 38.3357C40.921 37.8722 40.2939 37.6092 39.6384 37.6035C38.983 37.5978 38.3514 37.8498 37.8799 38.3052ZM34.3499 45.3752C33.6215 44.6865 33.0385 43.8588 32.6354 42.9409C32.2323 42.0231 32.0174 41.0337 32.0032 40.0313C31.989 39.029 32.1759 38.0339 32.5529 37.105C32.9299 36.1762 33.4892 35.3323 34.1979 34.6232C34.9066 33.9142 35.7502 33.3545 36.6789 32.9771C37.6076 32.5997 38.6026 32.4123 39.605 32.426C40.6073 32.4397 41.5968 32.6542 42.5148 33.0569C43.4329 33.4595 44.2609 34.0421 44.9499 34.7702C46.2923 36.1888 47.0284 38.075 47.0017 40.0278C46.975 41.9806 46.1877 43.846 44.807 45.2273C43.4263 46.6087 41.5613 47.3969 39.6085 47.4245C37.6557 47.4522 35.7691 46.7169 34.3499 45.3752Z" fill="#FF660E"/>
</svg>
