<svg width="100" height="100" viewBox="0 0 100 100" fill="none" xmlns="http://www.w3.org/2000/svg">
<path d="M89.5274 83.2029C83.3517 72.531 73.6564 65.0427 62.3907 61.867C67.8679 59.0828 72.2477 54.5351 74.824 48.9571C77.4003 43.3792 78.0229 37.0961 76.5914 31.1211C75.1599 25.146 71.7578 19.8272 66.9336 16.0222C62.1094 12.2173 56.1443 10.1479 50.0001 10.1479C43.8559 10.1479 37.8908 12.2173 33.0666 16.0222C28.2424 19.8272 24.8403 25.146 23.4088 31.1211C21.9773 37.0961 22.5999 43.3792 25.1762 48.9571C27.7525 54.5351 32.1323 59.0828 37.6095 61.867C26.3438 65.0388 16.6485 72.5271 10.4728 83.2029C10.3032 83.4697 10.1893 83.768 10.138 84.0799C10.0867 84.3918 10.099 84.7108 10.1742 85.0179C10.2494 85.3249 10.386 85.6135 10.5756 85.8664C10.7653 86.1193 11.0041 86.3312 11.2778 86.4894C11.5514 86.6476 11.8543 86.7488 12.1681 86.7869C12.4819 86.825 12.8001 86.7993 13.1037 86.7112C13.4073 86.6231 13.6899 86.4746 13.9346 86.2744C14.1793 86.0743 14.3809 85.8267 14.5274 85.5466C22.0313 72.5818 35.2892 64.8435 50.0001 64.8435C64.711 64.8435 77.9689 72.5818 85.4728 85.5466C85.6193 85.8267 85.8209 86.0743 86.0656 86.2744C86.3103 86.4746 86.5929 86.6231 86.8965 86.7112C87.2001 86.7993 87.5183 86.825 87.8321 86.7869C88.1459 86.7488 88.4488 86.6476 88.7224 86.4894C88.9961 86.3312 89.2349 86.1193 89.4246 85.8664C89.6142 85.6135 89.7508 85.3249 89.826 85.0179C89.9012 84.7108 89.9135 84.3918 89.8622 84.0799C89.8109 83.768 89.697 83.4697 89.5274 83.2029ZM27.3439 37.4998C27.3439 33.0188 28.6726 28.6384 31.1621 24.9126C33.6516 21.1868 37.19 18.2829 41.3299 16.5681C45.4698 14.8533 50.0252 14.4047 54.4201 15.2789C58.815 16.153 62.852 18.3108 66.0205 21.4794C69.189 24.6479 71.3468 28.6849 72.221 33.0798C73.0952 37.4746 72.6465 42.0301 70.9317 46.1699C69.2169 50.3098 66.313 53.8482 62.5872 56.3377C58.8614 58.8272 54.4811 60.156 50.0001 60.156C43.9935 60.1488 38.235 57.7595 33.9877 53.5122C29.7404 49.2649 27.3511 43.5064 27.3439 37.4998Z" fill="#FF660E"/>
</svg>
