<svg width="48" height="48" viewBox="0 0 48 48" fill="none" xmlns="http://www.w3.org/2000/svg">
<path d="M36.8 41.5H36.34C31.1576 40.9362 26.1785 39.1692 21.8 36.34C17.7324 33.7493 14.2788 30.3025 11.68 26.24C8.84431 21.85 7.07705 16.8565 6.52001 11.66C6.45632 11.0402 6.5192 10.4139 6.70485 9.81916C6.8905 9.22439 7.19505 8.67354 7.60001 8.20002C7.99388 7.72016 8.48005 7.32422 9.02971 7.03565C9.57938 6.74707 10.1814 6.57174 10.8 6.52002H16C17.1262 6.52116 18.2149 6.92495 19.0695 7.6585C19.9241 8.39204 20.4882 9.40697 20.66 10.52C20.8499 11.9498 21.2056 13.3526 21.72 14.7C22.0329 15.5468 22.0975 16.4653 21.9061 17.3475C21.7148 18.2297 21.2756 19.0389 20.64 19.68L19.42 20.9C21.3408 23.9324 23.9174 26.4953 26.96 28.4L28.18 27.2C28.8211 26.5645 29.6303 26.1252 30.5125 25.9339C31.3947 25.7426 32.3132 25.8071 33.16 26.12C34.509 26.6297 35.9112 26.9853 37.34 27.18C38.4721 27.3502 39.5031 27.9277 40.2396 28.8041C40.976 29.6805 41.3673 30.7956 41.34 31.94V36.74C41.34 37.9884 40.8455 39.1859 39.9646 40.0705C39.0838 40.9551 37.8884 41.4547 36.64 41.46L36.8 41.5ZM16 9.50002H11.22C10.9853 9.51554 10.7562 9.57848 10.5465 9.68504C10.3368 9.79161 10.1509 9.93958 10 10.12C9.85315 10.289 9.74201 10.486 9.67327 10.6991C9.60453 10.9122 9.57961 11.137 9.60001 11.36C10.085 16.0736 11.6672 20.608 14.22 24.6C16.5733 28.2934 19.7066 31.4267 23.4 33.78C27.3945 36.3597 31.934 37.9755 36.66 38.5C36.9058 38.5139 37.1518 38.4766 37.3824 38.3905C37.6131 38.3045 37.8234 38.1715 38 38C38.3185 37.6735 38.4977 37.2361 38.5 36.78V32C38.509 31.5791 38.3633 31.1695 38.0906 30.8489C37.8178 30.5282 37.4369 30.3187 37.02 30.26C35.3677 30.0379 33.7447 29.6355 32.18 29.06C31.8718 28.9448 31.5371 28.9193 31.215 28.9866C30.8929 29.0538 30.5964 29.2111 30.36 29.44L28.36 31.44C28.1258 31.6684 27.8241 31.8151 27.4998 31.8584C27.1755 31.9016 26.8459 31.8391 26.56 31.68C22.2924 29.2684 18.7599 25.7429 16.34 21.48C16.1744 21.196 16.108 20.8648 16.1515 20.5389C16.195 20.2129 16.3457 19.9108 16.58 19.68L18.58 17.68C18.8094 17.4481 18.9671 17.155 19.0345 16.8359C19.1019 16.5167 19.076 16.1849 18.96 15.88C18.3824 14.316 17.9799 12.6927 17.76 11.04C17.7104 10.6106 17.5027 10.2149 17.1773 9.93025C16.8519 9.64556 16.4323 9.49219 16 9.50002Z" fill="#FF660E"/>
</svg>
