<svg width="50" height="50" viewBox="0 0 50 50" fill="none" xmlns="http://www.w3.org/2000/svg">
<path fill-rule="evenodd" clip-rule="evenodd" d="M12.0583 29.2083C12.1479 29.2382 12.2399 29.2598 12.3333 29.2729C12.9228 30.6618 13.5089 32.0521 14.0917 33.4437C15.1396 35.9479 16.1958 38.5271 16.4271 39.2687C16.7167 40.1812 17.0208 40.8021 17.3542 41.2271C17.5271 41.4437 17.725 41.6354 17.9583 41.7812C18.0799 41.8573 18.2099 41.9188 18.3458 41.9646C19.0125 42.2146 19.6208 42.1104 20.0021 41.9833C20.2258 41.907 20.4387 41.8019 20.6354 41.6708L20.6458 41.6667L26.5333 37.9958L33.3354 43.2083C33.4354 43.2854 33.5438 43.35 33.6604 43.4021C34.4771 43.7562 35.2688 43.8812 36.0146 43.7812C36.7563 43.6771 37.3458 43.3667 37.7854 43.0146C38.2902 42.6077 38.6926 42.0883 38.9604 41.4979L38.9792 41.4521L38.9854 41.4354L38.9896 41.4271V41.4229L38.9917 41.4208C39.0279 41.3312 39.0558 41.2385 39.075 41.1437L45.2833 9.84166C45.3029 9.74146 45.3127 9.63959 45.3125 9.53749C45.3125 8.62082 44.9667 7.74791 44.1563 7.22082C43.4604 6.76874 42.6875 6.74791 42.1979 6.78541C41.6729 6.82707 41.1854 6.95624 40.8583 7.06041C40.6752 7.11844 40.4945 7.18377 40.3167 7.25624L40.2938 7.26666L5.47292 20.925L5.46875 20.9271C5.35094 20.9704 5.23488 21.0184 5.12084 21.0708C4.84471 21.195 4.57984 21.3427 4.32917 21.5125C3.85625 21.8354 2.76667 22.7229 2.95208 24.1896C3.09792 25.3562 3.89792 26.075 4.3875 26.4208C4.65417 26.6104 4.90834 26.7458 5.09584 26.8354C5.17917 26.8771 5.35834 26.9479 5.43542 26.9812L5.45625 26.9875L12.0583 29.2083ZM41.5125 10.1417H41.5083C41.4904 10.1496 41.4724 10.1573 41.4542 10.1646L6.59167 23.8417C6.57373 23.8489 6.55567 23.8559 6.5375 23.8625L6.51667 23.8687C6.45298 23.8938 6.39042 23.9216 6.32917 23.9521C6.38715 23.9853 6.44697 24.0152 6.50834 24.0417L13.0542 26.2458C13.1711 26.2852 13.283 26.3384 13.3875 26.4042L35.0063 13.7479L35.0271 13.7375C35.1111 13.6865 35.1973 13.6392 35.2854 13.5958C35.4354 13.5187 35.675 13.4062 35.9458 13.3229C36.1333 13.2646 36.6896 13.1 37.2896 13.2937C37.6078 13.3941 37.8915 13.5818 38.1081 13.8357C38.3247 14.0895 38.4655 14.3991 38.5146 14.7292C38.5922 15.0182 38.5943 15.3224 38.5208 15.6125C38.375 16.1854 37.975 16.6312 37.6104 16.9729C37.2979 17.2646 33.2438 21.1729 29.2458 25.0312L23.8021 30.2812L22.8333 31.2187L35.0667 40.5979C35.2318 40.6672 35.4111 40.6958 35.5896 40.6812C35.6795 40.669 35.764 40.6315 35.8333 40.5729C35.9178 40.5016 35.9903 40.4172 36.0479 40.3229L36.0521 40.3208L42.0729 9.96041C41.8833 10.006 41.6973 10.0659 41.5167 10.1396L41.5125 10.1417ZM23.8854 35.9625L21.4438 34.0917L20.8521 37.8521L23.8854 35.9625ZM19.2042 30.3792L21.6313 28.0354L27.075 22.7812L29.1021 20.8271L15.5188 28.7792L15.5917 28.95C16.4483 30.9738 17.2956 33.0016 18.1333 35.0333L18.7229 31.2833C18.7763 30.9355 18.9459 30.6181 19.2042 30.3792Z" fill="#FF660E"/>
</svg>
